# Blender v2.90.1 OBJ File: ''
# www.blender.org
mtllib nestFloor.mtl
o group1547616193
v 2.361275 0.254601 -1.432987
v 2.412667 0.252380 -1.428998
v 2.451841 0.214330 -1.464075
v 2.455297 0.244063 -1.383922
v 2.490642 0.237686 -1.389908
v 2.531989 0.236818 -1.426753
v 2.546034 0.237815 -1.458415
v 2.541912 0.228988 -1.490894
v 2.529560 0.220002 -1.523430
v 2.502455 0.220925 -1.521937
v 2.480036 0.206152 -1.530710
v 2.403191 0.255553 -1.515269
v 2.330858 0.295650 -1.496595
v 2.320616 0.288143 -1.450072
v 2.355306 0.278223 -1.395141
v 2.422912 0.286630 -1.365203
v 2.486365 0.306618 -1.373306
v 2.522211 0.294920 -1.384340
v 2.556362 0.295015 -1.408907
v 2.572401 0.253615 -1.487017
v 2.550829 0.276977 -1.533496
v 2.531654 0.302683 -1.594678
v 2.438678 0.330775 -1.623782
v 2.379123 0.325200 -1.571113
v 2.348863 0.286613 -1.508204
v 2.306164 0.276668 -1.438812
v 2.326143 0.245900 -1.362070
v 2.401944 0.286937 -1.321572
v 2.485809 0.316195 -1.320807
v 2.557221 0.312713 -1.353098
v 2.602864 0.303228 -1.416195
v 2.610508 0.290279 -1.493191
v 2.581525 0.228680 -1.553965
v 2.518563 0.224855 -1.600608
v 2.436292 0.264414 -1.615327
v 2.364881 0.267895 -1.583036
v 2.319237 0.277381 -1.519939
v 2.292702 0.234061 -1.429875
v 2.329549 0.248778 -1.349973
v 2.402063 0.259544 -1.299137
v 2.490813 0.263474 -1.290986
v 2.572020 0.259515 -1.327706
v 2.623923 0.248728 -1.399457
v 2.632616 0.234004 -1.487013
v 2.595769 0.219287 -1.566915
v 2.523255 0.208521 -1.617751
v 2.434505 0.204591 -1.625902
v 2.353298 0.208550 -1.589182
v 2.301395 0.219337 -1.517431
v 2.294413 0.174178 -1.419634
v 2.331260 0.188894 -1.339733
v 2.403774 0.199660 -1.288896
v 2.492524 0.203590 -1.280746
v 2.573731 0.199631 -1.317465
v 2.625634 0.188845 -1.389216
v 2.634327 0.174120 -1.476773
v 2.597480 0.159403 -1.556674
v 2.524966 0.148638 -1.607511
v 2.436216 0.144708 -1.615661
v 2.355010 0.148666 -1.578941
v 2.303106 0.159453 -1.507190
v 2.316521 0.117902 -1.413457
v 2.348923 0.130844 -1.343193
v 2.412691 0.140311 -1.298488
v 2.490737 0.143767 -1.291321
v 2.562149 0.140286 -1.323611
v 2.607792 0.130800 -1.386708
v 2.615436 0.117852 -1.463704
v 2.583033 0.104910 -1.533968
v 2.519266 0.095443 -1.578673
v 2.441220 0.091987 -1.585840
v 2.369808 0.095468 -1.553550
v 2.324165 0.104954 -1.490453
v 2.356358 0.072022 -1.412088
v 2.380408 0.081628 -1.359936
v 2.427738 0.088655 -1.326755
v 2.485666 0.091220 -1.321435
v 2.538669 0.088636 -1.345402
v 2.572547 0.081595 -1.392235
v 2.578221 0.071985 -1.449383
v 2.554171 0.062379 -1.501535
v 2.506841 0.055352 -1.534716
v 2.448913 0.052787 -1.540036
v 2.395909 0.055371 -1.516069
v 2.362032 0.062411 -1.469237
v 2.409120 0.042072 -1.415693
v 2.421916 0.047183 -1.387944
v 2.447100 0.050922 -1.370289
v 2.477923 0.052286 -1.367458
v 2.506125 0.050912 -1.380211
v 2.524151 0.047165 -1.405129
v 2.527170 0.042052 -1.435537
v 2.514374 0.036941 -1.463287
v 2.489190 0.033202 -1.480942
v 2.458367 0.031837 -1.483773
v 2.430164 0.033212 -1.471020
v 2.412138 0.036958 -1.446101
v 2.468442 0.031663 -1.423837
vt -0.046675 0.215356
vt -0.046338 0.220505
vt -0.040837 0.223948
vt -0.044062 0.118172
vt -0.049045 0.121961
vt -0.040669 0.123705
vt -0.050253 0.209039
vt -0.050076 0.212676
vt -0.041767 0.210132
vt -0.049160 0.250999
vt -0.046540 0.255878
vt -0.040744 0.248834
vt -0.044927 0.263335
vt -0.042305 0.265600
vt -0.038890 0.256495
vt -0.044162 0.262962
vt -0.040782 0.263235
vt -0.041112 0.253729
vt -0.040302 0.262549
vt -0.036738 0.262085
vt -0.040499 0.253040
vt -0.028896 0.241861
vt -0.027934 0.239321
vt -0.031243 0.232350
vt -0.037897 0.273256
vt -0.036227 0.270978
vt -0.042250 0.266886
vt -0.016008 0.143885
vt -0.011131 0.136007
vt -0.019199 0.137340
vt -0.010470 0.151652
vt -0.006385 0.144223
vt -0.018554 0.152881
vt -0.001974 0.166768
vt -0.010002 0.165312
vt -0.014709 0.174572
vt -0.039421 0.049419
vt -0.045296 0.052363
vt -0.041389 0.054598
vt -0.051032 0.201789
vt -0.054551 0.208346
vt -0.047255 0.207854
vt -0.040114 0.267147
vt -0.039531 0.273823
vt -0.034665 0.268702
vt -0.038075 0.274757
vt -0.035475 0.277703
vt -0.031291 0.272651
vt -0.048064 0.273898
vt -0.045997 0.277562
vt -0.040813 0.273546
vt -0.051053 0.262376
vt -0.042312 0.264453
vt -0.043658 0.260476
vt -0.026800 0.271596
vt -0.021203 0.272217
vt -0.025905 0.267760
vt -0.028331 0.228761
vt -0.021656 0.230537
vt -0.029214 0.222660
vt -0.000843 0.281076
vt 0.007444 0.275233
vt -0.008667 0.272887
vt 0.015576 0.223574
vt 0.016142 0.215624
vt 0.007399 0.212617
vt 0.015788 0.219409
vt 0.011900 0.212445
vt 0.007032 0.216441
vt 0.001000 0.146232
vt 0.003209 0.140156
vt 0.000311 0.144012
vt -0.021698 0.259538
vt -0.029978 0.257591
vt -0.021063 0.261605
vt -0.049256 0.251787
vt -0.055692 0.258807
vt -0.051992 0.261928
vt -0.054984 0.255105
vt -0.057569 0.263603
vt -0.052382 0.264859
vt -0.059809 0.245363
vt -0.057645 0.252904
vt -0.053653 0.249863
vt -0.057076 0.261466
vt -0.051663 0.267145
vt -0.051292 0.262382
vt -0.052047 0.275858
vt -0.044617 0.278375
vt -0.043265 0.273226
vt -0.036572 0.197920
vt -0.029087 0.192700
vt -0.034860 0.190800
vt -0.030470 0.167927
vt -0.028876 0.160245
vt -0.036133 0.165719
vt -0.010472 0.271829
vt -0.018126 0.266640
vt -0.023833 0.270138
vt -0.031143 0.273678
vt -0.034819 0.266747
vt -0.039860 0.270045
vt -0.036832 0.250915
vt -0.042201 0.245195
vt -0.041747 0.254399
vt -0.039715 0.244856
vt -0.034835 0.249096
vt -0.032828 0.246455
vt -0.032429 0.204755
vt -0.041151 0.206624
vt -0.031927 0.209284
vt -0.021233 0.251960
vt -0.028147 0.257597
vt -0.025251 0.259634
vt -0.004930 0.266422
vt -0.009664 0.273984
vt -0.004247 0.276740
vt 0.003996 0.239171
vt 0.000528 0.247391
vt 0.006315 0.249248
vt 0.009365 0.242020
vt 0.012073 0.161704
vt 0.009221 0.170156
vt 0.015129 0.171582
vt 0.017637 0.164149
vt 0.025242 0.054244
vt 0.021506 0.062345
vt 0.027229 0.064392
vt 0.030514 0.057268
vt 0.017638 0.095146
vt 0.011808 0.088393
vt 0.012705 0.098695
vt -0.035023 0.212795
vt -0.029230 0.206011
vt -0.036436 0.211186
vt -0.017234 0.260441
vt -0.020401 0.252101
vt -0.025870 0.254753
vt -0.024163 0.271129
vt -0.028368 0.263261
vt -0.033454 0.266589
vt -0.029756 0.273508
vt -0.031619 0.239589
vt -0.037538 0.232914
vt -0.041711 0.237333
vt -0.036506 0.243203
vt -0.037919 0.201385
vt -0.046050 0.197714
vt -0.047643 0.201983
vt -0.040901 0.206681
vt -0.029482 0.146993
vt -0.037942 0.149825
vt -0.036012 0.155589
vt -0.027553 0.152756
vt -0.005980 0.218469
vt -0.011482 0.225491
vt -0.006698 0.229240
vt -0.001196 0.222217
vt 0.007287 0.262751
vt 0.003091 0.270623
vt 0.008454 0.273482
vt 0.012651 0.265610
vt 0.017055 0.253957
vt 0.013022 0.261914
vt 0.018443 0.264662
vt 0.022476 0.256704
vt 0.027783 0.196069
vt 0.022928 0.203552
vt 0.028026 0.206861
vt 0.032882 0.199377
vt 0.042572 0.128811
vt 0.035251 0.133910
vt 0.038725 0.138897
vt 0.046045 0.133798
vt 0.037942 0.149825
vt 0.029482 0.146993
vt 0.027553 0.152757
vt 0.036012 0.155589
vt 0.011482 0.225491
vt 0.005980 0.218469
vt 0.001196 0.222217
vt 0.006698 0.229240
vt -0.003091 0.270623
vt -0.007287 0.262751
vt -0.012651 0.265610
vt -0.008454 0.273482
vt -0.013022 0.261914
vt -0.017055 0.253957
vt -0.022476 0.256704
vt -0.018443 0.264662
vt -0.022928 0.203552
vt -0.027783 0.196069
vt -0.032882 0.199377
vt -0.028026 0.206861
vt -0.035251 0.133910
vt -0.042572 0.128811
vt -0.046045 0.133798
vt -0.038725 0.138897
vt -0.012724 0.088314
vt -0.017851 0.094251
vt -0.013620 0.098615
vt -0.007790 0.091863
vt 0.010846 0.189701
vt 0.008330 0.197131
vt 0.013891 0.199583
vt 0.016753 0.191133
vt 0.019514 0.252339
vt 0.016729 0.259673
vt 0.022197 0.262325
vt 0.025364 0.253985
vt 0.027457 0.263384
vt 0.023759 0.270303
vt 0.028845 0.273631
vt 0.033050 0.265763
vt 0.036624 0.232822
vt 0.031419 0.238692
vt 0.035591 0.243111
vt 0.041510 0.236436
vt 0.045206 0.198112
vt 0.038038 0.201301
vt 0.040007 0.207051
vt 0.048158 0.203424
vt 0.041006 0.209041
vt 0.033328 0.207432
vt 0.031560 0.213247
vt 0.040291 0.215077
vt 0.024130 0.251539
vt 0.018234 0.246364
vt 0.013837 0.250560
vt 0.020542 0.256444
vt 0.010010 0.273133
vt 0.005847 0.266483
vt 0.000430 0.269239
vt 0.005164 0.276801
vt -0.000051 0.246606
vt -0.003101 0.239377
vt -0.008887 0.241235
vt -0.005420 0.249454
vt -0.008687 0.169409
vt -0.011195 0.161975
vt -0.017103 0.163401
vt -0.014251 0.171854
vt -0.021055 0.061545
vt -0.024340 0.054421
vt -0.030063 0.056467
vt -0.026327 0.064568
vt 0.038019 0.077584
vt 0.042746 0.080984
vt 0.047066 0.076710
vt 0.040698 0.072129
vt 0.029487 0.174764
vt 0.030360 0.180521
vt 0.036437 0.180622
vt 0.035260 0.172865
vt 0.030666 0.239226
vt 0.029632 0.244956
vt 0.035351 0.247015
vt 0.036743 0.239294
vt 0.035127 0.264014
vt 0.032520 0.269220
vt 0.037426 0.272807
vt 0.040938 0.265792
vt 0.040813 0.258009
vt 0.036644 0.262075
vt 0.040104 0.267071
vt 0.045720 0.261594
vt 0.044686 0.245683
vt 0.039200 0.247634
vt 0.040256 0.253619
vt 0.047647 0.250990
vt 0.041568 0.250562
vt 0.035824 0.249609
vt 0.033846 0.255356
vt 0.041586 0.256640
vt 0.031799 0.266764
vt 0.027097 0.263330
vt 0.022745 0.267573
vt 0.029080 0.272200
vt 0.021660 0.266943
vt 0.018494 0.262056
vt 0.012915 0.264466
vt 0.017181 0.271050
vt 0.014311 0.231200
vt 0.012705 0.225603
vt 0.006665 0.226284
vt 0.008829 0.233825
vt 0.010884 0.156940
vt 0.010985 0.151118
vt 0.005010 0.150003
vt 0.004874 0.157846
vt 0.017386 0.063350
vt 0.020310 0.058314
vt 0.015634 0.054431
vt 0.011696 0.061216
vt 0.039979 0.143188
vt 0.042960 0.144034
vt 0.045887 0.138707
vt 0.040285 0.137118
vt 0.038899 0.186801
vt 0.040559 0.189417
vt 0.046290 0.187394
vt 0.043170 0.182478
vt 0.038180 0.229858
vt 0.038320 0.232953
vt 0.044298 0.234047
vt 0.044035 0.228230
vt 0.039589 0.255334
vt 0.038425 0.258205
vt 0.043401 0.261694
vt 0.045590 0.256298
vt 0.041836 0.263768
vt 0.039599 0.265911
vt 0.042713 0.271130
vt 0.046917 0.267102
vt 0.042981 0.264485
vt 0.040037 0.265451
vt 0.040589 0.271503
vt 0.046121 0.269688
vt 0.041251 0.265635
vt 0.038187 0.265170
vt 0.035952 0.270822
vt 0.041709 0.271695
vt 0.036813 0.265310
vt 0.034269 0.263541
vt 0.029769 0.267627
vt 0.034550 0.270950
vt 0.031839 0.253616
vt 0.030260 0.250950
vt 0.024470 0.252796
vt 0.027437 0.257807
vt 0.028616 0.223010
vt 0.028264 0.219932
vt 0.022224 0.219252
vt 0.022886 0.225037
vt 0.029080 0.177083
vt 0.030175 0.174185
vt 0.025116 0.170816
vt 0.023058 0.176263
vt 0.034678 0.138023
vt 0.037294 0.136362
vt 0.035269 0.130631
vt 0.030353 0.133752
vt 0.040551 0.210154
vt 0.043170 0.204670
vt 0.040127 0.204091
vt 0.040093 0.218820
vt 0.045272 0.215640
vt 0.043031 0.213500
vt 0.039663 0.230517
vt 0.045741 0.230484
vt 0.044935 0.227492
vt 0.039658 0.240807
vt 0.044962 0.243775
vt 0.045736 0.240775
vt 0.040037 0.247465
vt 0.043282 0.252604
vt 0.045393 0.250337
vt 0.040467 0.250313
vt 0.040914 0.256374
vt 0.043843 0.255366
vt 0.040624 0.249784
vt 0.038177 0.255348
vt 0.041238 0.255831
vt 0.040430 0.245798
vt 0.035659 0.249562
vt 0.038134 0.251425
vt 0.040104 0.237964
vt 0.034119 0.239017
vt 0.035416 0.241831
vt 0.039980 0.226945
vt 0.034237 0.224956
vt 0.034002 0.228045
vt 0.040215 0.215673
vt 0.036283 0.211039
vt 0.034509 0.213579
vt 0.040565 0.208875
vt 0.039727 0.202855
vt 0.036869 0.204050
vt 0.003845 0.254766
vt -0.011302 0.249325
vt -0.012199 0.252003
vt 0.009389 0.207511
vt 0.002127 0.213264
vt 0.017286 0.218672
vt 0.001758 0.277334
vt -0.006027 0.269108
vt -0.007427 0.271435
vt -0.034893 0.221271
vt -0.034680 0.215111
vt -0.038224 0.215714
vt -0.042724 0.278670
vt -0.041058 0.275101
vt -0.044438 0.274837
vt -0.051336 0.251713
vt -0.043961 0.249737
vt -0.046457 0.247333
vt -0.048183 0.269167
vt -0.040932 0.268812
vt -0.043941 0.264162
vt -0.036802 0.272589
vt -0.030034 0.270433
vt -0.032025 0.267384
vt -0.054708 0.097330
vt -0.050878 0.101507
vt -0.047475 0.096253
vt -0.051389 0.207659
vt -0.047428 0.213604
vt -0.046961 0.208466
vt -0.003691 0.141332
vt -0.008764 0.143560
vt -0.000765 0.145166
vt -0.011098 0.139675
vt -0.010808 0.137368
vt -0.014329 0.145081
vt -0.031652 0.258895
vt -0.029266 0.263814
vt -0.022752 0.262943
vt -0.029168 0.268563
vt -0.023870 0.263337
vt -0.026324 0.258451
vt -0.042874 0.256033
vt -0.042428 0.258148
vt -0.035539 0.259738
vt -0.019534 0.263196
vt -0.021634 0.265764
vt -0.016560 0.271918
vt -0.052059 0.264392
vt -0.050955 0.257782
vt -0.054630 0.254630
vt -0.048275 0.186076
vt -0.048377 0.182149
vt -0.053442 0.180469
vt -0.051296 0.262608
vt -0.053005 0.258764
vt -0.057079 0.261694
vt -0.043293 0.267390
vt -0.052032 0.265304
vt -0.052057 0.270082
vt -0.020999 0.275841
vt -0.026597 0.275232
vt -0.026602 0.280556
vt -0.024905 0.245538
vt -0.017607 0.252577
vt -0.011575 0.247453
vt -0.029249 0.166577
vt -0.031632 0.166192
vt -0.035144 0.173207
vt -0.033370 0.143002
vt -0.031698 0.152096
vt -0.029321 0.152517
vt -0.032976 0.264472
vt -0.034665 0.263154
vt -0.043075 0.266696
vt -0.036843 0.244344
vt -0.033927 0.251762
vt -0.028238 0.248235
vt 0.024619 0.167343
vt 0.025457 0.175213
vt 0.031916 0.172763
vt 0.047210 0.140209
vt 0.045924 0.140112
vt 0.038543 0.144339
vt -0.054037 0.261508
vt -0.047557 0.254529
vt -0.048845 0.254574
vt -0.017118 0.276576
vt -0.014450 0.268104
vt -0.017462 0.266242
vn 0.0845 0.7210 -0.6877
vn 0.4964 0.8067 -0.3206
vn 0.1086 0.9305 -0.3498
vn -0.1703 0.9619 -0.2138
vn -0.2370 0.9686 -0.0746
vn -0.2225 0.9476 -0.2293
vn -0.2112 0.9598 -0.1849
vn 0.0419 0.9879 0.1492
vn -0.4440 0.8472 -0.2918
vn 0.5548 0.8211 0.1340
vn 0.5128 0.8378 0.1873
vn 0.4727 0.8260 0.3070
vn 0.6791 0.6660 -0.3086
vn 0.1061 0.8689 -0.4835
vn -0.2027 0.2608 -0.9439
vn -0.2225 0.2152 -0.9509
vn -0.5244 0.4427 -0.7273
vn -0.7565 0.5007 -0.4207
vn -0.5609 0.6055 0.5646
vn -0.8241 0.3816 0.4186
vn -0.0296 0.6703 0.7415
vn 0.4714 0.6451 0.6013
vn 0.4504 0.6481 0.6141
vn -0.5585 -0.7908 -0.2505
vn -0.3366 0.8405 0.4246
vn -0.3860 0.9023 -0.1919
vn -0.3230 0.9304 -0.1732
vn -0.1270 0.9164 -0.3796
vn -0.2107 0.9327 -0.2926
vn -0.2106 0.9328 -0.2926
vn -0.2125 0.9324 -0.2924
vn -0.6967 0.6929 -0.1857
vn 0.3775 0.5543 -0.7418
vn 0.4625 0.5786 -0.6718
vn 0.1139 -0.1296 -0.9850
vn -0.3844 0.2786 -0.8801
vn -0.7482 0.3082 -0.5876
vn -0.2424 0.9596 -0.1430
vn -0.8742 0.3474 0.3392
vn -0.5373 0.5330 0.6536
vn -0.1013 0.4825 0.8700
vn 0.3803 0.4824 0.7891
vn 0.7575 0.4406 0.4817
vn 0.9292 0.3684 0.0303
vn 0.8494 0.2849 -0.4442
vn 0.1788 0.8794 -0.4412
vn 0.0826 0.1711 -0.9818
vn -0.3990 0.1712 -0.9008
vn -0.7762 0.2130 -0.5935
vn -0.9493 0.2787 -0.1456
vn -0.9103 0.0444 0.4116
vn -0.5818 0.1209 0.8043
vn -0.0974 0.1651 0.9815
vn 0.4130 0.1650 0.8957
vn 0.8128 0.1207 0.5698
vn 0.9948 0.0440 0.0914
vn 0.9103 -0.0444 -0.4116
vn 0.5818 -0.1209 -0.8043
vn 0.0974 -0.1651 -0.9815
vn -0.4130 -0.1650 -0.8956
vn -0.8128 -0.1207 -0.5699
vn -0.9948 -0.0440 -0.0914
vn -0.8494 -0.2849 0.4442
vn -0.5395 -0.2127 0.8146
vn -0.0826 -0.1711 0.9818
vn 0.3990 -0.1712 0.9008
vn 0.7762 -0.2129 0.5935
vn 0.9479 -0.2852 0.1421
vn 0.8681 -0.3687 -0.3324
vn 0.5582 -0.4409 -0.7029
vn 0.1013 -0.4825 -0.8700
vn -0.3803 -0.4824 -0.7891
vn -0.7575 -0.4406 -0.4817
vn -0.9292 -0.3684 -0.0303
vn -0.6894 -0.5859 0.4259
vn -0.4343 -0.5265 0.7309
vn -0.0580 -0.4922 0.8686
vn 0.3386 -0.4922 0.8019
vn 0.6492 -0.5267 0.5488
vn 0.7906 -0.5862 0.1771
vn 0.7249 -0.6549 -0.2137
vn 0.4697 -0.7143 -0.5187
vn 0.0934 -0.7486 -0.6564
vn -0.3031 -0.7486 -0.5897
vn -0.6137 -0.7142 -0.3366
vn -0.7551 -0.6546 0.0351
vn -0.4428 -0.8230 0.3558
vn -0.2743 -0.7837 0.5573
vn -0.0258 -0.7611 0.6482
vn 0.2361 -0.7611 0.6041
vn 0.4412 -0.7838 0.4370
vn 0.5346 -0.8231 0.1915
vn 0.4912 -0.8685 -0.0665
vn 0.3227 -0.9078 -0.2680
vn 0.0742 -0.9304 -0.3589
vn -0.1877 -0.9304 -0.3149
vn -0.3929 -0.9077 -0.1477
vn -0.4862 -0.8683 0.0978
vn -0.1358 -0.9613 0.2397
vn -0.0768 -0.9476 0.3102
vn 0.0102 -0.9396 0.3420
vn 0.1019 -0.9397 0.3266
vn 0.1736 -0.9476 0.2681
vn 0.2064 -0.9614 0.1821
vn 0.1912 -0.9773 0.0918
vn 0.1322 -0.9910 0.0213
vn 0.0452 -0.9989 -0.0105
vn -0.0465 -0.9989 0.0049
vn -0.1183 -0.9910 0.0634
vn -0.1510 -0.9772 0.1494
vn -0.5431 0.3793 0.7492
vn 0.5156 0.6159 0.5956
vn 0.0638 0.6505 0.7568
vn -0.8959 0.3762 0.2362
vn -0.6123 0.7792 -0.1340
vn -0.8210 0.4511 -0.3500
vn -0.6049 0.4006 -0.6882
vn -0.1231 0.2251 -0.9665
vn 0.6042 0.6576 -0.4501
vn 0.0771 0.8512 -0.5191
vn 0.5516 0.7958 0.2498
vn 0.5043 0.8557 0.1160
vn -0.4242 0.8057 0.4134
vn -0.3218 0.8032 0.5012
vn -0.6656 0.7395 -0.1008
vn -0.3982 0.8548 0.3328
vn -0.3150 0.9359 -0.1580
vn 0.2578 0.9510 -0.1708
vn -0.2129 0.9323 -0.2924
vn -0.2256 0.8409 -0.4920
vn -0.5233 0.6388 0.5640
vn 0.3045 0.0213 -0.9523
vn 0.3853 0.7184 -0.5791
vn 0.4392 0.7074 -0.5538
vn -0.1329 0.7271 -0.6736
vn -0.6570 -0.0720 -0.7505
vn 0.9293 -0.1299 -0.3458
vn 0.9640 -0.0320 -0.2638
vn -0.4365 0.8952 -0.0901
vn -0.2222 0.6172 0.7548
usemtl mat21
s 1
f 1/1/1 2/2/1 3/3/1
f 2/4/2 4/5/2 3/6/2
f 4/7/3 5/8/3 3/9/3
f 5/10/4 6/11/4 3/12/4
f 6/13/5 7/14/5 3/15/5
f 7/16/6 8/17/6 3/18/6
f 8/19/7 9/20/7 3/21/7
f 9/22/8 10/23/8 3/24/8
f 10/25/9 11/26/9 3/27/9
f 11/28/10 12/29/10 3/30/10
f 12/31/11 13/32/11 3/33/11
f 13/34/12 1/35/12 3/36/12
f 14/37/13 15/38/13 1/39/13
f 15/40/14 16/41/14 2/42/14
f 16/43/15 17/44/15 4/45/15
f 17/46/16 18/47/16 5/48/16
f 18/49/17 19/50/17 6/51/17
f 19/52/18 20/53/18 7/54/18
f 20/55/19 21/56/19 8/57/19
f 21/58/20 22/59/20 9/60/20
f 22/61/21 23/62/21 10/63/21
f 23/64/22 24/65/22 12/66/22
f 24/67/23 25/68/23 12/69/23
f 25/70/24 14/71/24 13/72/24
f 26/73/25 27/74/25 14/75/25
f 27/76/26 28/77/26 16/78/26
f 28/79/27 29/80/27 17/81/27
f 29/82/28 30/83/28 18/84/28
f 30/85/29 31/86/30 19/87/31
f 31/88/32 32/89/32 20/90/32
f 32/91/33 33/92/33 21/93/33
f 33/94/34 34/95/34 21/96/34
f 34/97/35 35/98/35 23/99/35
f 35/100/36 36/101/36 24/102/36
f 36/103/37 37/104/37 24/105/37
f 14/106/38 25/107/38 37/108/38
f 38/109/39 39/110/39 26/111/39
f 39/112/40 40/113/40 28/114/40
f 40/115/41 41/116/41 29/117/41
f 41/118/42 42/119/42 30/120/42 29/121/42
f 42/122/43 43/123/43 31/124/43 30/125/43
f 43/126/44 44/127/44 32/128/44 31/129/44
f 44/130/45 45/131/45 32/132/45
f 45/133/46 46/134/46 33/135/46
f 46/136/47 47/137/47 35/138/47
f 47/139/48 48/140/48 36/141/48 35/142/48
f 48/143/49 49/144/49 37/145/49 36/146/49
f 49/147/50 38/148/50 26/149/50 37/150/50
f 50/151/51 51/152/51 39/153/51 38/154/51
f 51/155/52 52/156/52 40/157/52 39/158/52
f 52/159/53 53/160/53 41/161/53 40/162/53
f 53/163/54 54/164/54 42/165/54 41/166/54
f 54/167/55 55/168/55 43/169/55 42/170/55
f 55/171/56 56/172/56 44/173/56 43/174/56
f 56/175/57 57/176/57 45/177/57 44/178/57
f 57/179/58 58/180/58 46/181/58 45/182/58
f 58/183/59 59/184/59 47/185/59 46/186/59
f 59/187/60 60/188/60 48/189/60 47/190/60
f 60/191/61 61/192/61 49/193/61 48/194/61
f 61/195/62 50/196/62 38/197/62 49/198/62
f 62/199/63 63/200/63 51/201/63 50/202/63
f 63/203/64 64/204/64 52/205/64 51/206/64
f 64/207/65 65/208/65 53/209/65 52/210/65
f 65/211/66 66/212/66 54/213/66 53/214/66
f 66/215/67 67/216/67 55/217/67 54/218/67
f 67/219/68 68/220/68 56/221/68 55/222/68
f 68/223/69 69/224/69 57/225/69 56/226/69
f 69/227/70 70/228/70 58/229/70 57/230/70
f 70/231/71 71/232/71 59/233/71 58/234/71
f 71/235/72 72/236/72 60/237/72 59/238/72
f 72/239/73 73/240/73 61/241/73 60/242/73
f 73/243/74 62/244/74 50/245/74 61/246/74
f 74/247/75 75/248/75 63/249/75 62/250/75
f 75/251/76 76/252/76 64/253/76 63/254/76
f 76/255/77 77/256/77 65/257/77 64/258/77
f 77/259/78 78/260/78 66/261/78 65/262/78
f 78/263/79 79/264/79 67/265/79 66/266/79
f 79/267/80 80/268/80 68/269/80 67/270/80
f 80/271/81 81/272/81 69/273/81 68/274/81
f 81/275/82 82/276/82 70/277/82 69/278/82
f 82/279/83 83/280/83 71/281/83 70/282/83
f 83/283/84 84/284/84 72/285/84 71/286/84
f 84/287/85 85/288/85 73/289/85 72/290/85
f 85/291/86 74/292/86 62/293/86 73/294/86
f 86/295/87 87/296/87 75/297/87 74/298/87
f 87/299/88 88/300/88 76/301/88 75/302/88
f 88/303/89 89/304/89 77/305/89 76/306/89
f 89/307/90 90/308/90 78/309/90 77/310/90
f 90/311/91 91/312/91 79/313/91 78/314/91
f 91/315/92 92/316/92 80/317/92 79/318/92
f 92/319/93 93/320/93 81/321/93 80/322/93
f 93/323/94 94/324/94 82/325/94 81/326/94
f 94/327/95 95/328/95 83/329/95 82/330/95
f 95/331/96 96/332/96 84/333/96 83/334/96
f 96/335/97 97/336/97 85/337/97 84/338/97
f 97/339/98 86/340/98 74/341/98 85/342/98
f 98/343/99 87/344/99 86/345/99
f 98/346/100 88/347/100 87/348/100
f 98/349/101 89/350/101 88/351/101
f 98/352/102 90/353/102 89/354/102
f 98/355/103 91/356/103 90/357/103
f 98/358/104 92/359/104 91/360/104
f 98/361/105 93/362/105 92/363/105
f 98/364/106 94/365/106 93/366/106
f 98/367/107 95/368/107 94/369/107
f 98/370/108 96/371/108 95/372/108
f 98/373/109 97/374/109 96/375/109
f 98/376/110 86/377/110 97/378/110
f 23/379/111 11/380/111 10/381/111
f 12/382/112 11/383/112 23/384/112
f 22/385/113 10/386/113 9/387/113
f 21/388/114 9/389/114 8/390/114
f 20/391/115 8/392/115 7/393/115
f 19/394/116 7/395/116 6/396/116
f 18/397/117 6/398/117 5/399/117
f 17/400/118 5/401/118 4/402/118
f 16/403/119 4/404/119 2/405/119
f 15/406/120 2/407/120 1/408/120
f 14/409/121 1/410/121 13/411/121
f 25/412/122 13/413/122 12/414/122
f 27/415/123 15/416/123 14/417/123
f 16/418/124 15/419/124 27/420/124
f 26/421/125 14/422/125 37/423/125
f 37/424/126 25/425/126 24/426/126
f 17/427/127 16/428/127 28/429/127
f 18/430/128 17/431/128 29/432/128
f 19/433/31 18/434/129 30/435/29
f 20/436/130 19/437/130 31/438/130
f 21/439/131 20/440/131 32/441/131
f 23/442/132 22/443/132 34/444/132
f 46/445/133 34/446/133 33/447/133
f 35/448/134 34/449/134 46/450/134
f 45/451/135 33/452/135 32/453/135
f 24/454/136 23/455/136 35/456/136
f 34/457/137 22/458/137 21/459/137
f 39/460/138 27/461/138 26/462/138
f 28/463/139 27/464/139 39/465/139
f 29/466/140 28/467/140 40/468/140
